<svg width="33" height="33" viewBox="0 0 33 33" fill="none" xmlns="http://www.w3.org/2000/svg">
<circle cx="16.3881" cy="16.0874" r="15" fill="white"/>
<path d="M16.3881 32.0874C7.56483 32.0874 0.388062 24.9102 0.388062 16.0883C0.388062 7.26458 7.56483 0.0874023 16.3881 0.0874023C25.2095 0.0874023 32.3881 7.26458 32.3881 16.0883C32.3862 24.9102 25.2095 32.0874 16.3881 32.0874ZM16.3881 1.80714C8.51246 1.80714 2.1077 8.21227 2.1077 16.0883C2.1077 23.9625 8.51429 30.3695 16.3881 30.3695C24.2618 30.3695 30.6684 23.9625 30.6684 16.0883C30.6684 8.21227 24.2618 1.80714 16.3881 1.80714Z" fill="#4F4F9C"/>
<path d="M25.5827 10.2485C24.99 10.5174 24.3387 10.6784 23.6984 10.7864C24.0021 10.7351 24.4485 10.1863 24.6278 9.96308C24.9003 9.62462 25.1272 9.23859 25.2552 8.82146C25.2717 8.78853 25.2845 8.74828 25.2516 8.72267C25.2113 8.7062 25.1839 8.71535 25.151 8.73182C24.4375 9.11418 23.6984 9.39227 22.9136 9.58803C22.8477 9.60449 22.8002 9.58803 22.7599 9.54778C22.6941 9.4746 22.6337 9.40508 22.5642 9.34836C22.2349 9.06662 21.88 8.84708 21.4793 8.68425C20.9543 8.4702 20.3817 8.38055 19.8164 8.41714C19.2676 8.4519 18.7279 8.60741 18.2395 8.86354C17.751 9.11967 17.3138 9.4746 16.968 9.9027C16.6095 10.3454 16.3442 10.8705 16.2088 11.4249C16.0771 11.9609 16.0881 12.4896 16.1686 13.0312C16.1814 13.1208 16.1722 13.1336 16.0917 13.1208C13.0183 12.6634 10.4718 11.5639 8.40275 9.20749C8.3131 9.10504 8.26371 9.10504 8.19053 9.21481C7.28498 10.5705 7.72404 12.7513 8.85461 13.8215C9.00462 13.9642 9.16012 14.1069 9.3266 14.2368C9.26623 14.2496 8.51251 14.1673 7.84295 13.8215C7.75331 13.7648 7.70757 13.7977 7.70025 13.8984C7.69111 14.0447 7.70391 14.1801 7.72404 14.3393C7.89783 15.7151 8.84912 16.9866 10.1535 17.4824C10.309 17.5482 10.4791 17.6049 10.6456 17.6324C10.3492 17.6983 10.0419 17.744 9.19122 17.6781C9.08511 17.658 9.04487 17.7111 9.08511 17.8135C9.72541 19.5589 11.1084 20.0784 12.1421 20.373C12.2811 20.3968 12.4201 20.3968 12.5592 20.4297C12.55 20.4425 12.5427 20.4425 12.5354 20.4535C12.1914 20.9767 11.0023 21.3664 10.448 21.5604C9.44002 21.9134 8.34238 22.0708 7.27766 21.9665C7.10753 21.9409 7.07094 21.9427 7.0252 21.9665C6.97764 21.9958 7.01971 22.036 7.0746 22.0799C7.29047 22.2226 7.50999 22.3489 7.73501 22.4714C8.41189 22.83 9.11621 23.1154 9.85529 23.3185C13.6641 24.3705 17.9559 23.5966 20.8171 20.7554C23.0636 18.5234 23.8503 15.4461 23.8503 12.3634C23.8503 12.2426 23.993 12.1768 24.0771 12.1128C24.6607 11.6737 25.1254 11.1486 25.5626 10.5613C25.6614 10.4296 25.6541 10.3125 25.6541 10.2649C25.6541 10.2558 25.6541 10.2485 25.6541 10.2485C25.6522 10.1991 25.6577 10.2137 25.5827 10.2485Z" fill="#4F4F9C"/>
<path fill-rule="evenodd" clip-rule="evenodd" d="M12.5425 23.7026C12.5188 23.7053 12.2352 23.7026 12.5425 23.7026C12.5425 23.7026 12.4932 23.7026 12.5425 23.7026Z" fill="#4F4F9C"/>
<path fill-rule="evenodd" clip-rule="evenodd" d="M13.1702 23.7174C13.1702 23.6863 13.5013 23.7174 13.1702 23.7174C13.1702 23.7028 13.2104 23.7174 13.1702 23.7174Z" fill="#4F4F9C"/>
<path fill-rule="evenodd" clip-rule="evenodd" d="M19.767 8.43018C19.7469 8.44664 19.7176 8.44664 19.6902 8.43018C19.7176 8.43018 19.7451 8.43018 19.767 8.43018Z" fill="#4F4F9C"/>
</svg>
