<svg width="32" height="33" viewBox="0 0 32 33" fill="none" xmlns="http://www.w3.org/2000/svg">
<circle cx="16" cy="16.0874" r="15" fill="white"/>
<path d="M16 32.0874C7.17811 32.0874 0 24.9093 0 16.0874C0 7.2655 7.17811 0.0874023 16 0.0874023C24.8219 0.0874023 32 7.2655 32 16.0874C32 24.9093 24.8219 32.0874 16 32.0874ZM16 1.81C8.12737 1.81 1.7226 8.21476 1.7226 16.0874C1.7226 23.96 8.12737 30.3648 16 30.3648C23.8727 30.3648 30.2774 23.96 30.2774 16.0874C30.2774 8.21476 23.8727 1.81 16 1.81Z" fill="#4F4F9C"/>
<path d="M25.0455 17.3061V23.2802C25.0455 23.4287 24.9263 23.5478 24.7779 23.5478H21.6937C21.5453 23.5478 21.4262 23.4287 21.4262 23.2802V17.7239C21.4262 16.2616 20.9039 15.2628 19.5936 15.2628C18.5931 15.2628 17.9993 15.9354 17.7373 16.5859C17.642 16.8187 17.6181 17.1412 17.6181 17.4674V23.2784C17.6181 23.4268 17.499 23.546 17.3506 23.546H14.2682C14.1198 23.546 14.0007 23.4268 14.0007 23.2784C14.008 21.7995 14.0392 14.6196 14.0062 12.9337C14.0025 12.7834 14.1235 12.6624 14.2737 12.6624H17.3506C17.499 12.6624 17.6181 12.7816 17.6181 12.93V14.2054C17.6108 14.2183 17.5998 14.2293 17.5943 14.2403H17.6181V14.2054C18.0983 13.4651 18.9559 12.4077 20.8801 12.4077C23.2606 12.4077 25.0455 13.9635 25.0455 17.3061ZM8.64782 23.5478H11.7302C11.8786 23.5478 11.9977 23.4287 11.9977 23.2802V12.9318C11.9977 12.7834 11.8786 12.6643 11.7302 12.6643H8.64782C8.49938 12.6643 8.38025 12.7834 8.38025 12.9318V23.2802C8.38025 23.4268 8.50121 23.5478 8.64782 23.5478Z" fill="#4F4F9C"/>
<path d="M10.0809 11.2788C11.1507 11.2788 12.0179 10.4116 12.0179 9.34179C12.0179 8.27201 11.1507 7.40479 10.0809 7.40479C9.01114 7.40479 8.14392 8.27201 8.14392 9.34179C8.14392 10.4116 9.01114 11.2788 10.0809 11.2788Z" fill="#4F4F9C"/>
</svg>
