<svg width="33" height="32" viewBox="0 0 33 32" fill="none" xmlns="http://www.w3.org/2000/svg">
<circle cx="16.092" cy="16" r="15" fill="white"/>
<path d="M16.092 32C7.27271 32 0.092041 24.8193 0.092041 16C0.092041 7.18067 7.27271 0 16.092 0C24.9114 0 32.092 7.18067 32.092 16C32.0736 24.8377 24.9114 32 16.092 32ZM16.092 1.52819C8.10125 1.52819 1.62023 8.02762 1.62023 16C1.62023 23.9908 8.11966 30.4718 16.092 30.4718C24.0644 30.4718 30.5638 23.9724 30.5638 16C30.5638 8.02762 24.0644 1.52819 16.092 1.52819ZM21.4683 9.51899C20.8055 9.51899 20.29 10.0529 20.29 10.6974C20.29 11.3418 20.8239 11.8757 21.4683 11.8757C22.1312 11.8757 22.6467 11.3418 22.6467 10.6974C22.6467 10.0529 22.1312 9.51899 21.4683 9.51899ZM16.2209 11.0288C13.4775 11.0288 11.2497 13.2566 11.2497 16C11.2497 18.7434 13.4775 20.9712 16.2209 20.9712C18.9643 20.9712 21.1922 18.7434 21.1922 16C21.1922 13.2566 18.9643 11.0288 16.2209 11.0288ZM16.2209 19.2037C14.4718 19.2037 13.0357 17.7675 13.0357 16.0184C13.0357 14.2693 14.4718 12.8331 16.2209 12.8331C17.9701 12.8331 19.4062 14.2693 19.4062 16.0184C19.4062 17.7675 17.9701 19.2037 16.2209 19.2037ZM26.2554 11.8757C26.2554 8.52474 23.5489 5.81818 20.1979 5.81818H12.1887C8.81931 5.81818 6.11275 8.52474 6.11275 11.8757V19.8849C6.11275 23.2359 8.81931 25.9425 12.1703 25.9425H20.1795C23.5305 25.9425 26.237 23.2359 26.237 19.8849V11.8757H26.2554ZM24.3406 19.8849C24.3406 22.1864 22.481 24.046 20.1795 24.046H12.1703C9.86879 24.046 8.00918 22.1864 8.00918 19.8849V11.8757C8.00918 9.57422 9.86879 7.71461 12.1703 7.71461H20.1795C22.481 7.71461 24.3406 9.57422 24.3406 11.8757V19.8849Z" fill="#50509D"/>
</svg>
