<svg width="33" height="32" viewBox="0 0 33 32" fill="none" xmlns="http://www.w3.org/2000/svg">
<circle cx="16.046" cy="16.0874" r="15" fill="white"/>
<path d="M16.046 32C7.21402 32 0.0460205 24.8279 0.0460205 16.0091C0.0460205 7.1721 7.21402 0 16.046 0C24.8597 0 32.046 7.1721 32.046 16.0091C32.0277 24.8279 24.8597 32 16.046 32ZM16.046 1.71984C8.18316 1.71984 1.76488 8.1235 1.76488 16.0091C1.76488 23.8765 8.16488 30.2985 16.046 30.2985C23.9089 30.2985 30.3272 23.8948 30.3272 16.0091C30.3089 8.1235 23.9089 1.71984 16.046 1.71984Z" fill="#50509D"/>
<path fill-rule="evenodd" clip-rule="evenodd" d="M13.5226 16.0823V25.3584C13.5226 25.4865 13.6323 25.5963 13.7603 25.5963H17.198C17.326 25.5963 17.4358 25.4865 17.4358 25.3584V15.9176H19.9226C20.0506 15.9176 20.1603 15.8261 20.1603 15.698L20.398 12.8621C20.4163 12.7158 20.3066 12.606 20.1603 12.606H17.4175V10.5934C17.4175 10.1177 17.8015 9.73348 18.2769 9.73348H20.1969C20.3249 9.73348 20.4346 9.6237 20.4346 9.49563V6.65973C20.4346 6.53165 20.3249 6.42188 20.1969 6.42188H16.9786C15.0769 6.42188 13.5226 7.97705 13.5226 9.87985V12.6243H11.8038C11.6758 12.6243 11.566 12.7341 11.566 12.8621V15.698C11.566 15.8261 11.6758 15.9359 11.8038 15.9359H13.5226V16.0823Z" fill="#50509D"/>
</svg>
