<svg width="128" height="26" viewBox="0 0 128 26" fill="none" xmlns="http://www.w3.org/2000/svg">
<path d="M3.456 25.2919H0.768L6.888 2.29994H9.552L3.456 25.2919ZM121.675 25.2919H118.987L125.107 2.29994H127.771L121.675 25.2919Z" fill="#E6E6E6"/>
<path d="M16.7033 17.2039C16.7033 15.7959 17.4153 14.7159 18.8393 13.9639C20.2793 13.2119 22.1673 12.8279 24.5033 12.8119V12.3319C24.5033 11.7559 24.4393 11.2999 24.3113 10.9639C24.1833 10.6279 23.9513 10.3799 23.6153 10.2199C23.2793 10.0439 22.7833 9.95595 22.1273 9.95595C21.3433 9.95595 20.6393 10.0519 20.0153 10.2439C19.4073 10.4199 18.7673 10.6599 18.0953 10.9639L17.2793 9.23594C17.5353 9.02795 17.9513 8.77995 18.5273 8.49195C19.1033 8.18794 19.7913 7.93194 20.5913 7.72395C21.4073 7.49995 22.2553 7.38795 23.1353 7.38795C24.4153 7.38795 25.4153 7.55594 26.1353 7.89194C26.8713 8.22794 27.3913 8.74795 27.6953 9.45195C28.0153 10.1559 28.1753 11.1159 28.1753 12.3319V19.4599H29.4233V20.9719C29.0553 21.0519 28.5433 21.1319 27.8873 21.2119C27.2313 21.2919 26.6713 21.3319 26.2073 21.3319C25.5993 21.3319 25.1913 21.2439 24.9833 21.0679C24.7913 20.8919 24.6953 20.5399 24.6953 20.0119V19.4599C24.2953 19.9399 23.7593 20.3719 23.0872 20.7559C22.4153 21.1239 21.6393 21.3079 20.7593 21.3079C20.0073 21.3079 19.3193 21.1479 18.6953 20.8279C18.0873 20.4919 17.5993 20.0199 17.2313 19.4119C16.8793 18.7879 16.7033 18.0519 16.7033 17.2039ZM22.6313 19.0999C22.9193 19.0999 23.2393 19.0199 23.5913 18.8599C23.9433 18.6839 24.2473 18.4759 24.5033 18.2359V14.4199C23.2553 14.4199 22.3273 14.6439 21.7193 15.0919C21.1273 15.5399 20.8313 16.1159 20.8313 16.8199C20.8313 17.5399 20.9913 18.0999 21.3113 18.4999C21.6313 18.8999 22.0713 19.0999 22.6313 19.0999ZM30.7508 19.4599L32.2148 19.2439V10.2199L30.7988 9.78795V7.91594L34.7828 7.38795H34.8548L35.5268 7.89194V8.46794L35.4548 10.4599H35.5268C35.6388 10.0919 35.8948 9.66794 36.2948 9.18794C36.6948 8.69194 37.1988 8.26794 37.8068 7.91594C38.4308 7.54794 39.1028 7.36394 39.8228 7.36394C40.2388 7.36394 40.5588 7.41994 40.7828 7.53194V11.7079C40.5268 11.5159 40.2468 11.3639 39.9428 11.2519C39.6548 11.1399 39.2788 11.0839 38.8148 11.0839C38.2388 11.0839 37.7188 11.1639 37.2548 11.3239C36.7908 11.4679 36.4228 11.6359 36.1508 11.8279V19.2439L38.7908 19.4839V21.0439H30.7508V19.4599ZM46.314 21.2599C45.258 21.2599 44.474 21.0199 43.962 20.5399C43.466 20.0439 43.218 19.2839 43.218 18.2599V9.71594H41.754V8.32394L42.234 8.13194C42.618 8.00394 42.954 7.86795 43.242 7.72395C43.562 7.41995 43.818 7.01995 44.01 6.52394C44.25 5.94794 44.514 5.13994 44.802 4.09994H47.034L47.178 7.69994H50.61V9.71594H47.226V16.0759C47.226 16.9559 47.25 17.5719 47.298 17.9239C47.346 18.2759 47.434 18.5079 47.562 18.6199C47.706 18.7159 47.962 18.7639 48.33 18.7639C49.082 18.7639 49.794 18.6359 50.466 18.3799L50.97 19.8919C50.522 20.2599 49.858 20.5799 48.978 20.8519C48.098 21.1239 47.21 21.2599 46.314 21.2599ZM51.7189 17.2039C51.7189 15.7959 52.4309 14.7159 53.8549 13.9639C55.2949 13.2119 57.1829 12.8279 59.5189 12.8119V12.3319C59.5189 11.7559 59.4549 11.2999 59.3269 10.9639C59.1989 10.6279 58.9669 10.3799 58.6309 10.2199C58.2949 10.0439 57.7989 9.95595 57.1429 9.95595C56.3589 9.95595 55.6549 10.0519 55.0309 10.2439C54.4229 10.4199 53.7829 10.6599 53.1109 10.9639L52.2949 9.23594C52.5509 9.02795 52.9669 8.77995 53.5429 8.49195C54.1189 8.18794 54.8069 7.93194 55.6069 7.72395C56.4229 7.49995 57.2709 7.38795 58.1509 7.38795C59.4309 7.38795 60.4309 7.55594 61.1509 7.89194C61.8869 8.22794 62.4069 8.74795 62.7109 9.45195C63.0309 10.1559 63.1909 11.1159 63.1909 12.3319V19.4599H64.4389V20.9719C64.0709 21.0519 63.5589 21.1319 62.9029 21.2119C62.2469 21.2919 61.6869 21.3319 61.2229 21.3319C60.6149 21.3319 60.2069 21.2439 59.9989 21.0679C59.8069 20.8919 59.7109 20.5399 59.7109 20.0119V19.4599C59.3109 19.9399 58.7749 20.3719 58.1029 20.7559C57.4309 21.1239 56.6549 21.3079 55.7749 21.3079C55.0229 21.3079 54.3349 21.1479 53.7109 20.8279C53.1029 20.4919 52.6149 20.0199 52.2469 19.4119C51.8949 18.7879 51.7189 18.0519 51.7189 17.2039ZM57.6469 19.0999C57.9349 19.0999 58.2549 19.0199 58.6069 18.8599C58.9589 18.6839 59.2629 18.4759 59.5189 18.2359V14.4199C58.2709 14.4199 57.3429 14.6439 56.7349 15.0919C56.1429 15.5399 55.8469 16.1159 55.8469 16.8199C55.8469 17.5399 56.0069 18.0999 56.3269 18.4999C56.6469 18.8999 57.0869 19.0999 57.6469 19.0999ZM68.7424 19.0519C68.8544 19.2279 69.1104 19.3879 69.5104 19.5319C69.9264 19.6759 70.3424 19.7479 70.7584 19.7479C71.4144 19.7479 71.9104 19.6119 72.2464 19.3399C72.5984 19.0519 72.7744 18.6839 72.7744 18.2359C72.7744 17.7559 72.5504 17.3639 72.1024 17.0599C71.6544 16.7399 70.9184 16.3559 69.8944 15.9079L68.9824 15.4999C67.9424 15.0359 67.1584 14.4759 66.6304 13.8199C66.1184 13.1479 65.8624 12.2999 65.8624 11.2759C65.8624 10.5399 66.0784 9.88394 66.5104 9.30794C66.9424 8.71594 67.5664 8.25194 68.3824 7.91594C69.1984 7.57994 70.1584 7.41194 71.2624 7.41194C72.0304 7.41194 72.6944 7.45994 73.2544 7.55594C73.8144 7.65194 74.3824 7.77194 74.9584 7.91594C75.3424 8.02794 75.6304 8.09194 75.8224 8.10794V11.3719H73.6864L73.0624 9.52394C72.9824 9.37994 72.7904 9.25194 72.4864 9.13994C72.1824 9.01195 71.8384 8.94795 71.4544 8.94795C70.8464 8.94795 70.3664 9.08395 70.0144 9.35594C69.6624 9.61194 69.4864 9.96394 69.4864 10.4119C69.4864 10.9239 69.6864 11.3319 70.0864 11.6359C70.4864 11.9239 71.1264 12.2679 72.0064 12.6679L72.5104 12.8839C73.8064 13.4279 74.8224 14.0199 75.5584 14.6599C76.2944 15.2839 76.6624 16.1479 76.6624 17.2519C76.6624 18.4359 76.1904 19.4119 75.2464 20.1799C74.3024 20.9319 72.9104 21.3079 71.0704 21.3079C70.2224 21.3079 69.4704 21.2359 68.8144 21.0919C68.1584 20.9639 67.4384 20.7879 66.6544 20.5639L65.8624 20.3479V17.1559H68.1424L68.7424 19.0519ZM78.4941 14.4439C78.4941 12.9079 78.7981 11.6119 79.4061 10.5559C80.0141 9.48395 80.8301 8.68395 81.8541 8.15595C82.8941 7.62794 84.0301 7.36394 85.2621 7.36394C87.2781 7.36394 88.8541 7.97194 89.9901 9.18794C91.1421 10.3879 91.7181 12.0679 91.7181 14.2279C91.7181 15.8119 91.4141 17.1319 90.8061 18.1879C90.1981 19.2439 89.3821 20.0279 88.3581 20.5399C87.3341 21.0519 86.1901 21.3079 84.9261 21.3079C82.9261 21.3079 81.3501 20.7079 80.1981 19.5079C79.0621 18.2919 78.4941 16.6039 78.4941 14.4439ZM85.1661 19.6279C85.9341 19.6279 86.5021 19.2199 86.8701 18.4039C87.2541 17.5719 87.4461 16.2759 87.4461 14.5159C87.4461 12.6439 87.2621 11.2679 86.8941 10.3879C86.5421 9.49195 85.9421 9.04395 85.0941 9.04395C83.5261 9.04395 82.7421 10.7479 82.7421 14.1559C82.7421 16.0119 82.9341 17.3879 83.3181 18.2839C83.7021 19.1799 84.3181 19.6279 85.1661 19.6279ZM95.4045 9.71594H93.5325V8.22794L95.4045 7.74794V6.73994C95.4045 5.66794 95.6925 4.69194 96.2685 3.81194C96.8445 2.93194 97.6125 2.23594 98.5725 1.72394C99.5485 1.21194 100.597 0.955945 101.717 0.955945C102.309 0.955945 102.845 1.03594 103.325 1.19594V4.67594C103.149 4.48394 102.805 4.29994 102.293 4.12394C101.781 3.93194 101.277 3.83595 100.781 3.83595C100.253 3.83595 99.8765 3.97194 99.6525 4.24394C99.4285 4.51594 99.3165 4.96394 99.3165 5.58794V7.72395H102.197V9.71594H99.3165V19.2439L101.741 19.4599V21.0439H93.5565V19.4599L95.4045 19.2439V9.71594ZM107.791 21.2599C106.735 21.2599 105.951 21.0199 105.439 20.5399C104.943 20.0439 104.695 19.2839 104.695 18.2599V9.71594H103.231V8.32394L103.711 8.13194C104.095 8.00394 104.431 7.86795 104.719 7.72395C105.039 7.41995 105.295 7.01995 105.487 6.52394C105.727 5.94794 105.991 5.13994 106.279 4.09994H108.511L108.655 7.69994H112.087V9.71594H108.703V16.0759C108.703 16.9559 108.727 17.5719 108.775 17.9239C108.823 18.2759 108.911 18.5079 109.039 18.6199C109.183 18.7159 109.439 18.7639 109.807 18.7639C110.559 18.7639 111.271 18.6359 111.943 18.3799L112.447 19.8919C111.999 20.2599 111.335 20.5799 110.455 20.8519C109.575 21.1239 108.687 21.2599 107.791 21.2599Z" fill="#6868A8"/>
</svg>
