<svg width="128" height="26" viewBox="0 0 128 26" fill="none" xmlns="http://www.w3.org/2000/svg">
<path d="M3.456 25.248H0.768L6.888 2.256H9.552L3.456 25.248ZM16.7033 17.16C16.7033 15.752 17.4153 14.672 18.8393 13.92C20.2793 13.168 22.1673 12.784 24.5033 12.768V12.288C24.5033 11.712 24.4393 11.256 24.3113 10.92C24.1833 10.584 23.9513 10.336 23.6153 10.176C23.2793 10 22.7833 9.912 22.1273 9.912C21.3433 9.912 20.6393 10.008 20.0153 10.2C19.4073 10.376 18.7673 10.616 18.0953 10.92L17.2793 9.192C17.5353 8.984 17.9513 8.736 18.5273 8.448C19.1033 8.144 19.7913 7.888 20.5913 7.68C21.4073 7.456 22.2553 7.344 23.1353 7.344C24.4153 7.344 25.4153 7.512 26.1353 7.848C26.8713 8.184 27.3913 8.704 27.6953 9.408C28.0153 10.112 28.1753 11.072 28.1753 12.288V19.416H29.4233V20.928C29.0553 21.008 28.5433 21.088 27.8873 21.168C27.2313 21.248 26.6713 21.288 26.2073 21.288C25.5993 21.288 25.1913 21.2 24.9833 21.024C24.7913 20.848 24.6953 20.496 24.6953 19.968V19.416C24.2953 19.896 23.7593 20.328 23.0872 20.712C22.4153 21.08 21.6393 21.264 20.7593 21.264C20.0073 21.264 19.3193 21.104 18.6953 20.784C18.0873 20.448 17.5993 19.976 17.2313 19.368C16.8793 18.744 16.7033 18.008 16.7033 17.16ZM22.6313 19.056C22.9193 19.056 23.2393 18.976 23.5913 18.816C23.9433 18.64 24.2473 18.432 24.5033 18.192V14.376C23.2553 14.376 22.3273 14.6 21.7193 15.048C21.1273 15.496 20.8313 16.072 20.8313 16.776C20.8313 17.496 20.9913 18.056 21.3113 18.456C21.6313 18.856 22.0713 19.056 22.6313 19.056ZM30.7508 19.416L32.2148 19.2V10.176L30.7988 9.744V7.872L34.7828 7.344H34.8548L35.5268 7.848V8.424L35.4548 10.416H35.5268C35.6388 10.048 35.8948 9.624 36.2948 9.144C36.6948 8.648 37.1988 8.224 37.8068 7.872C38.4308 7.504 39.1028 7.32 39.8228 7.32C40.2388 7.32 40.5588 7.376 40.7828 7.488V11.664C40.5268 11.472 40.2468 11.32 39.9428 11.208C39.6548 11.096 39.2788 11.04 38.8148 11.04C38.2388 11.04 37.7188 11.12 37.2548 11.28C36.7908 11.424 36.4228 11.592 36.1508 11.784V19.2L38.7908 19.44V21H30.7508V19.416ZM46.314 21.216C45.258 21.216 44.474 20.976 43.962 20.496C43.466 20 43.218 19.24 43.218 18.216V9.672H41.754V8.28L42.234 8.088C42.618 7.96 42.954 7.824 43.242 7.68C43.562 7.376 43.818 6.976 44.01 6.48C44.25 5.904 44.514 5.096 44.802 4.056H47.034L47.178 7.656H50.61V9.672H47.226V16.032C47.226 16.912 47.25 17.528 47.298 17.88C47.346 18.232 47.434 18.464 47.562 18.576C47.706 18.672 47.962 18.72 48.33 18.72C49.082 18.72 49.794 18.592 50.466 18.336L50.97 19.848C50.522 20.216 49.858 20.536 48.978 20.808C48.098 21.08 47.21 21.216 46.314 21.216ZM51.7189 17.16C51.7189 15.752 52.4309 14.672 53.8549 13.92C55.2949 13.168 57.1829 12.784 59.5189 12.768V12.288C59.5189 11.712 59.4549 11.256 59.3269 10.92C59.1989 10.584 58.9669 10.336 58.6309 10.176C58.2949 10 57.7989 9.912 57.1429 9.912C56.3589 9.912 55.6549 10.008 55.0309 10.2C54.4229 10.376 53.7829 10.616 53.1109 10.92L52.2949 9.192C52.5509 8.984 52.9669 8.736 53.5429 8.448C54.1189 8.144 54.8069 7.888 55.6069 7.68C56.4229 7.456 57.2709 7.344 58.1509 7.344C59.4309 7.344 60.4309 7.512 61.1509 7.848C61.8869 8.184 62.4069 8.704 62.7109 9.408C63.0309 10.112 63.1909 11.072 63.1909 12.288V19.416H64.4389V20.928C64.0709 21.008 63.5589 21.088 62.9029 21.168C62.2469 21.248 61.6869 21.288 61.2229 21.288C60.6149 21.288 60.2069 21.2 59.9989 21.024C59.8069 20.848 59.7109 20.496 59.7109 19.968V19.416C59.3109 19.896 58.7749 20.328 58.1029 20.712C57.4309 21.08 56.6549 21.264 55.7749 21.264C55.0229 21.264 54.3349 21.104 53.7109 20.784C53.1029 20.448 52.6149 19.976 52.2469 19.368C51.8949 18.744 51.7189 18.008 51.7189 17.16ZM57.6469 19.056C57.9349 19.056 58.2549 18.976 58.6069 18.816C58.9589 18.64 59.2629 18.432 59.5189 18.192V14.376C58.2709 14.376 57.3429 14.6 56.7349 15.048C56.1429 15.496 55.8469 16.072 55.8469 16.776C55.8469 17.496 56.0069 18.056 56.3269 18.456C56.6469 18.856 57.0869 19.056 57.6469 19.056ZM68.7424 19.008C68.8544 19.184 69.1104 19.344 69.5104 19.488C69.9264 19.632 70.3424 19.704 70.7584 19.704C71.4144 19.704 71.9104 19.568 72.2464 19.296C72.5984 19.008 72.7744 18.64 72.7744 18.192C72.7744 17.712 72.5504 17.32 72.1024 17.016C71.6544 16.696 70.9184 16.312 69.8944 15.864L68.9824 15.456C67.9424 14.992 67.1584 14.432 66.6304 13.776C66.1184 13.104 65.8624 12.256 65.8624 11.232C65.8624 10.496 66.0784 9.84 66.5104 9.264C66.9424 8.672 67.5664 8.208 68.3824 7.872C69.1984 7.536 70.1584 7.368 71.2624 7.368C72.0304 7.368 72.6944 7.416 73.2544 7.512C73.8144 7.608 74.3824 7.728 74.9584 7.872C75.3424 7.984 75.6304 8.048 75.8224 8.064V11.328H73.6864L73.0624 9.48C72.9824 9.336 72.7904 9.208 72.4864 9.096C72.1824 8.968 71.8384 8.904 71.4544 8.904C70.8464 8.904 70.3664 9.04 70.0144 9.312C69.6624 9.568 69.4864 9.92 69.4864 10.368C69.4864 10.88 69.6864 11.288 70.0864 11.592C70.4864 11.88 71.1264 12.224 72.0064 12.624L72.5104 12.84C73.8064 13.384 74.8224 13.976 75.5584 14.616C76.2944 15.24 76.6624 16.104 76.6624 17.208C76.6624 18.392 76.1904 19.368 75.2464 20.136C74.3024 20.888 72.9104 21.264 71.0704 21.264C70.2224 21.264 69.4704 21.192 68.8144 21.048C68.1584 20.92 67.4384 20.744 66.6544 20.52L65.8624 20.304V17.112H68.1424L68.7424 19.008ZM78.4941 14.4C78.4941 12.864 78.7981 11.568 79.4061 10.512C80.0141 9.44 80.8301 8.64 81.8541 8.112C82.8941 7.584 84.0301 7.32 85.2621 7.32C87.2781 7.32 88.8541 7.928 89.9901 9.144C91.1421 10.344 91.7181 12.024 91.7181 14.184C91.7181 15.768 91.4141 17.088 90.8061 18.144C90.1981 19.2 89.3821 19.984 88.3581 20.496C87.3341 21.008 86.1901 21.264 84.9261 21.264C82.9261 21.264 81.3501 20.664 80.1981 19.464C79.0621 18.248 78.4941 16.56 78.4941 14.4ZM85.1661 19.584C85.9341 19.584 86.5021 19.176 86.8701 18.36C87.2541 17.528 87.4461 16.232 87.4461 14.472C87.4461 12.6 87.2621 11.224 86.8941 10.344C86.5421 9.448 85.9421 9 85.0941 9C83.5261 9 82.7421 10.704 82.7421 14.112C82.7421 15.968 82.9341 17.344 83.3181 18.24C83.7021 19.136 84.3181 19.584 85.1661 19.584ZM95.4045 9.672H93.5325V8.184L95.4045 7.704V6.696C95.4045 5.624 95.6925 4.648 96.2685 3.768C96.8445 2.888 97.6125 2.192 98.5725 1.68C99.5485 1.168 100.597 0.912 101.717 0.912C102.309 0.912 102.845 0.992 103.325 1.152V4.632C103.149 4.44 102.805 4.256 102.293 4.08C101.781 3.888 101.277 3.792 100.781 3.792C100.253 3.792 99.8765 3.928 99.6525 4.2C99.4285 4.472 99.3165 4.92 99.3165 5.544V7.68H102.197V9.672H99.3165V19.2L101.741 19.416V21H93.5565V19.416L95.4045 19.2V9.672ZM107.791 21.216C106.735 21.216 105.951 20.976 105.439 20.496C104.943 20 104.695 19.24 104.695 18.216V9.672H103.231V8.28L103.711 8.088C104.095 7.96 104.431 7.824 104.719 7.68C105.039 7.376 105.295 6.976 105.487 6.48C105.727 5.904 105.991 5.096 106.279 4.056H108.511L108.655 7.656H112.087V9.672H108.703V16.032C108.703 16.912 108.727 17.528 108.775 17.88C108.823 18.232 108.911 18.464 109.039 18.576C109.183 18.672 109.439 18.72 109.807 18.72C110.559 18.72 111.271 18.592 111.943 18.336L112.447 19.848C111.999 20.216 111.335 20.536 110.455 20.808C109.575 21.08 108.687 21.216 107.791 21.216ZM121.675 25.248H118.987L125.107 2.256H127.771L121.675 25.248Z" fill="white"/>
</svg>
