<svg width="28" height="23" viewBox="0 0 28 23" fill="none" xmlns="http://www.w3.org/2000/svg">
<path d="M0 23V17.2381C0 15.3016 0.314254 13.2857 0.942761 11.1905C1.60269 9.06349 2.54545 7.03175 3.77104 5.09524C4.99663 3.12698 6.47363 1.42857 8.20202 0L13.1515 3.47619C11.7059 5.57143 10.5903 7.73016 9.80471 9.95238C9.01908 12.1429 8.62626 14.5238 8.62626 17.0952V23H0ZM14.8485 23V17.2381C14.8485 15.3016 15.1627 13.2857 15.7912 11.1905C16.4512 9.06349 17.3939 7.03175 18.6195 5.09524C19.8451 3.12698 21.3221 1.42857 23.0505 0L28 3.47619C26.5544 5.57143 25.4388 7.73016 24.6532 9.95238C23.8676 12.1429 23.4747 14.5238 23.4747 17.0952V23H14.8485Z" fill="#F592AA"/>
</svg>
