<svg width="760" height="467" viewBox="0 0 760 467" fill="none" xmlns="http://www.w3.org/2000/svg">
<g style="mix-blend-mode:overlay" opacity="0.4" filter="url(#filter0_ddddd_152_365)">
<mask id="mask0_152_365" style="mask-type:alpha" maskUnits="userSpaceOnUse" x="115" y="1" width="769" height="352">
<path opacity="0.5" d="M319 131.544C319 129.207 320.619 127.182 322.899 126.667L877.659 1.37798C880.786 0.671752 883.76 3.04933 883.76 6.25515V222.456C883.76 224.793 882.141 226.818 879.862 227.333L325.101 352.622C321.974 353.328 319 350.951 319 347.745V131.544Z" fill="#6666FF"/>
<g style="mix-blend-mode:multiply">
<path d="M115 112.302C115 109.964 116.62 107.938 118.9 107.424L442.9 34.3752C446.027 33.6703 449 36.0477 449 39.2528V162.698C449 165.036 447.38 167.062 445.1 167.576L121.1 240.625C117.973 241.33 115 238.952 115 235.747V112.302Z" fill="#7171BB" fill-opacity="0.2"/>
</g>
</mask>
<g mask="url(#mask0_152_365)">
<g style="mix-blend-mode:lighten">
<rect x="106" y="24" width="598" height="345" fill="white"/>
</g>
</g>
</g>
<defs>
<filter id="filter0_ddddd_152_365" x="0" y="9" width="754" height="627.747" filterUnits="userSpaceOnUse" color-interpolation-filters="sRGB">
<feFlood flood-opacity="0" result="BackgroundImageFix"/>
<feColorMatrix in="SourceAlpha" type="matrix" values="0 0 0 0 0 0 0 0 0 0 0 0 0 0 0 0 0 0 127 0" result="hardAlpha"/>
<feOffset/>
<feColorMatrix type="matrix" values="0 0 0 0 0 0 0 0 0 0 0 0 0 0 0 0 0 0 0.1 0"/>
<feBlend mode="normal" in2="BackgroundImageFix" result="effect1_dropShadow_152_365"/>
<feColorMatrix in="SourceAlpha" type="matrix" values="0 0 0 0 0 0 0 0 0 0 0 0 0 0 0 0 0 0 127 0" result="hardAlpha"/>
<feOffset dx="-2" dy="13"/>
<feGaussianBlur stdDeviation="14"/>
<feColorMatrix type="matrix" values="0 0 0 0 0 0 0 0 0 0 0 0 0 0 0 0 0 0 0.1 0"/>
<feBlend mode="normal" in2="effect1_dropShadow_152_365" result="effect2_dropShadow_152_365"/>
<feColorMatrix in="SourceAlpha" type="matrix" values="0 0 0 0 0 0 0 0 0 0 0 0 0 0 0 0 0 0 127 0" result="hardAlpha"/>
<feOffset dx="-8" dy="51"/>
<feGaussianBlur stdDeviation="25.5"/>
<feColorMatrix type="matrix" values="0 0 0 0 0 0 0 0 0 0 0 0 0 0 0 0 0 0 0.09 0"/>
<feBlend mode="normal" in2="effect2_dropShadow_152_365" result="effect3_dropShadow_152_365"/>
<feColorMatrix in="SourceAlpha" type="matrix" values="0 0 0 0 0 0 0 0 0 0 0 0 0 0 0 0 0 0 127 0" result="hardAlpha"/>
<feOffset dx="-19" dy="114"/>
<feGaussianBlur stdDeviation="34.5"/>
<feColorMatrix type="matrix" values="0 0 0 0 0 0 0 0 0 0 0 0 0 0 0 0 0 0 0.05 0"/>
<feBlend mode="normal" in2="effect3_dropShadow_152_365" result="effect4_dropShadow_152_365"/>
<feColorMatrix in="SourceAlpha" type="matrix" values="0 0 0 0 0 0 0 0 0 0 0 0 0 0 0 0 0 0 127 0" result="hardAlpha"/>
<feOffset dx="-33" dy="202"/>
<feGaussianBlur stdDeviation="41"/>
<feColorMatrix type="matrix" values="0 0 0 0 0 0 0 0 0 0 0 0 0 0 0 0 0 0 0.01 0"/>
<feBlend mode="normal" in2="effect4_dropShadow_152_365" result="effect5_dropShadow_152_365"/>
<feBlend mode="normal" in="SourceGraphic" in2="effect5_dropShadow_152_365" result="shape"/>
</filter>
</defs>
</svg>
