<svg width="64" height="64" viewBox="0 0 64 64" fill="none" xmlns="http://www.w3.org/2000/svg">
<path fill-rule="evenodd" clip-rule="evenodd" d="M21 14C17.6863 14 15 16.6863 15 20V43C15 46.3137 17.6863 49 21 49H44C47.3137 49 50 46.3137 50 43V20C50 16.6863 47.3137 14 44 14H21ZM30.4494 25.6667H31.0258L35.1515 37.3334H32.7246L31.9588 34.8734H27.99L27.2261 37.3334H24.8068L28.9098 25.6667H29.471H30.4494ZM28.5748 32.9904H31.3726L29.9719 28.4912L28.5748 32.9904ZM39.394 37.3334V25.6667H37.1263V37.3334H39.394Z" fill="#F592AA"/>
<g style="mix-blend-mode:overlay">
<rect x="20" y="10" width="4" height="7" fill="#42FFFF"/>
<rect x="27" y="10" width="4" height="7" fill="#42FFFF"/>
<rect x="34" y="10" width="4" height="7" fill="#42FFFF"/>
<rect x="41" y="10" width="4" height="7" fill="#42FFFF"/>
<rect x="20" y="46" width="4" height="7" fill="#42FFFF"/>
<rect x="27" y="46" width="4" height="7" fill="#42FFFF"/>
<rect x="34" y="46" width="4" height="7" fill="#42FFFF"/>
<rect x="41" y="46" width="4" height="7" fill="#42FFFF"/>
<rect x="54" y="19" width="4" height="7" transform="rotate(90 54 19)" fill="#42FFFF"/>
<rect x="54" y="26" width="4" height="7" transform="rotate(90 54 26)" fill="#42FFFF"/>
<rect x="54" y="33" width="4" height="7" transform="rotate(90 54 33)" fill="#42FFFF"/>
<rect x="54" y="40" width="4" height="7" transform="rotate(90 54 40)" fill="#42FFFF"/>
<rect x="18" y="19" width="4" height="7" transform="rotate(90 18 19)" fill="#42FFFF"/>
<rect x="18" y="26" width="4" height="7" transform="rotate(90 18 26)" fill="#42FFFF"/>
<rect x="18" y="33" width="4" height="7" transform="rotate(90 18 33)" fill="#42FFFF"/>
<rect x="18" y="40" width="4" height="7" transform="rotate(90 18 40)" fill="#42FFFF"/>
</g>
</svg>
