<svg width="64" height="64" viewBox="0 0 64 64" fill="none" xmlns="http://www.w3.org/2000/svg">
<path fill-rule="evenodd" clip-rule="evenodd" d="M60.1844 19.612L46.8589 27.3055L33.6746 19.6935L47.0001 12L60.1844 19.612ZM61.0001 21.3371L47.951 28.871V43.7827L61.0001 36.2488V21.3371ZM46.0491 43.7828V29.034L33 21.5001V36.2488L46.0491 43.7828Z" fill="#F592AA"/>
<path fill-rule="evenodd" clip-rule="evenodd" d="M30.1844 19.612L16.8589 27.3055L3.67455 19.6935L17.0001 12L30.1844 19.612ZM31.0001 21.3371L17.951 28.871V43.7827L31.0001 36.2488V21.3371ZM16.0491 43.7828V29.034L3 21.5001V36.2488L16.0491 43.7828Z" fill="#F592AA"/>
<g style="mix-blend-mode:overlay">
<path fill-rule="evenodd" clip-rule="evenodd" d="M45.1844 28.612L31.8589 36.3055L18.6746 28.6935L32.0001 21L45.1844 28.612ZM46.0001 30.3371L32.951 37.871V52.7827L46.0001 45.2488V30.3371ZM31.0491 52.7828V38.034L18 30.5001V45.2488L31.0491 52.7828Z" fill="#42FFFF"/>
</g>
</svg>
