<svg width="64" height="64" viewBox="0 0 64 64" fill="none" xmlns="http://www.w3.org/2000/svg">
<path d="M35 42H7.5C3.365 42 0 38.635 0 34.5C0 30.99 2.9975 27.61 6.6825 26.9625L8.135 26.7075L8.615 25.3125C10.3725 20.185 14.7375 17 20 17C26.8925 17 32.5 22.6075 32.5 29.5V32H35C37.7575 32 40 34.2425 40 37C40 39.7575 37.7575 42 35 42Z" fill="#F592AA"/>
<g style="mix-blend-mode:overlay">
<path d="M59 47H31.5C27.365 47 24 43.635 24 39.5C24 35.99 26.9975 32.61 30.6825 31.9625L32.135 31.7075L32.615 30.3125C34.3725 25.185 38.7375 22 44 22C50.8925 22 56.5 27.6075 56.5 34.5V37H59C61.7575 37 64 39.2425 64 42C64 44.7575 61.7575 47 59 47Z" fill="#42FFFF"/>
</g>
</svg>
