<svg width="64" height="64" viewBox="0 0 64 64" fill="none" xmlns="http://www.w3.org/2000/svg">
<path d="M40.4138 26.0077H28.5287L36.9923 34.4713L34.4713 36.9923L26.0077 28.5287V40.4138H22.4061V28.3487L13.9425 36.8123L11.4215 34.2912L19.5249 26.0077H8V22.4061H19.8851L11.4215 13.9425L13.9425 11.4215L22.4061 19.8851V8H26.0077V19.5249L34.2912 11.2414L36.8123 13.9425L28.3487 22.4061H40.4138V26.0077Z" fill="#F592AA"/>
<g style="mix-blend-mode:overlay">
<path d="M55.0003 40.5939H43.1153L51.5789 49.0575L49.0578 51.5786L40.5942 43.115V55H36.9926V42.9349L28.529 51.3985L26.008 48.8774L34.1114 40.5939H22.5865V36.9924H34.4716L26.008 28.5288L28.529 26.0077L36.9926 34.4713V22.5862H40.5942V34.1111L48.8777 25.8276L51.3988 28.5288L42.9352 36.9924H55.0003V40.5939Z" fill="#42FFFF"/>
</g>
</svg>
