<svg width="64" height="64" viewBox="0 0 64 64" fill="none" xmlns="http://www.w3.org/2000/svg">
<path d="M22.1488 28.6511H14.4893V24.9509H22.1488V28.6511ZM22.1488 36.0516H14.4893V32.3514H22.1488V36.0516ZM33.6381 21.2506H28.2572C27.3956 19.8075 26.2083 18.5679 24.7722 17.6244L27.8934 14.6087L25.1934 12L21.0382 16.0148C20.1573 15.8113 19.2765 15.7002 18.319 15.7002C17.3616 15.7002 16.4807 15.8113 15.619 16.0148L11.4446 12L8.74464 14.6087L11.8467 17.6244C10.4297 18.5679 9.2425 19.8075 8.38081 21.2506H3V24.9509H7.0021C6.90635 25.5614 6.82976 26.172 6.82976 26.801V28.6511H3V32.3514H6.82976V34.2015C6.82976 34.8305 6.90635 35.4411 7.0021 36.0516H3V39.7519H8.38081C10.3723 43.0636 14.068 45.3022 18.319 45.3022C22.5701 45.3022 26.2658 43.0636 28.2572 39.7519H36.5V36.0516H29.636C29.7317 35.4411 29.8083 34.8305 29.8083 34.2015V32.3514H36.5V28.6511H29.8083V26.801C29.8083 26.172 29.7317 25.5614 29.636 24.9509H33.6381V21.2506Z" fill="#F592AA"/>
<g style="mix-blend-mode:overlay">
<path d="M49.1488 36.0511H41.4893V32.3509H49.1488V36.0511ZM49.1488 43.4516H41.4893V39.7514H49.1488V43.4516ZM60.6381 28.6506H55.2572C54.3956 27.2075 53.2083 25.968 51.7722 25.0244L54.8934 22.0087L52.1934 19.4L48.0382 23.4148C47.1573 23.2113 46.2765 23.1003 45.319 23.1003C44.3616 23.1003 43.4807 23.2113 42.619 23.4148L38.4446 19.4L35.7446 22.0087L38.8467 25.0244C37.4297 25.968 36.2425 27.2075 35.3808 28.6506H27.5V32.3509H34.0021C33.9064 32.9614 33.8298 33.572 33.8298 34.201V36.0511H27.5V39.7514H33.8298V41.6015C33.8298 42.2306 33.9064 42.8411 34.0021 43.4516H30V47.1519H35.3808C37.3723 50.4636 41.068 52.7023 45.319 52.7023C49.5701 52.7023 53.2658 50.4636 55.2572 47.1519H60.6381V43.4516H56.636C56.7317 42.8411 56.8083 42.2306 56.8083 41.6015V39.7514H60.6381V36.0511H56.8083V34.201C56.8083 33.572 56.7317 32.9614 56.636 32.3509H60.6381V28.6506Z" fill="#42FFFF"/>
</g>
</svg>
