<svg width="52" height="52" viewBox="0 0 52 52" fill="none" xmlns="http://www.w3.org/2000/svg">
<rect width="52" height="52" rx="10" fill="#6868A8"/>
<path d="M17 23.709H16V24.709V37.209C16 38.3136 16.8954 39.209 18 39.209H34C35.1046 39.209 36 38.3136 36 37.209V24.709V23.709H35H17Z" stroke="#F592AA" stroke-width="2"/>
<path d="M29 28.959L26 31.959L23 28.959" stroke="white" stroke-width="2" stroke-linecap="square"/>
<path d="M26.0001 23.9585L26.0001 31.4585" stroke="white" stroke-width="2" stroke-linecap="round"/>
<path d="M8 12.7085H20.75C23.6495 12.7085 26 15.059 26 17.9585V17.9585" stroke="white" stroke-width="2"/>
<path d="M44 12.7085H31.25C28.3505 12.7085 26 15.059 26 17.9585V17.9585" stroke="white" stroke-width="2"/>
<rect x="14.2501" y="18.9585" width="23.5" height="4.75" stroke="#F592AA" stroke-width="2"/>
</svg>
