<svg width="52" height="52" viewBox="0 0 52 52" fill="none" xmlns="http://www.w3.org/2000/svg">
<rect width="52" height="52" rx="10" fill="#6868A8"/>
<path d="M28.6782 36.4398C28.1199 36.7123 27.4932 36.8004 26.8842 36.6919C26.2753 36.5835 25.7138 36.2839 25.277 35.8342L24.0594 34.5838L22.6003 37.0886C22.5225 37.2228 22.4158 37.3368 22.2886 37.4222C22.1614 37.5075 22.0169 37.5618 21.8662 37.581C21.7155 37.6003 21.5625 37.5838 21.4188 37.533C21.2752 37.4822 21.1448 37.3983 21.0374 37.2878L15.3887 31.4753C15.2815 31.365 15.2002 31.2311 15.1509 31.0837C15.1015 30.9363 15.0855 30.7792 15.104 30.6245C15.1224 30.4697 15.1749 30.3213 15.2574 30.1905C15.34 30.0598 15.4504 29.9501 15.5803 29.8697L18.0155 28.3668L16.7979 27.1144C16.3614 26.665 16.0708 26.0877 15.9657 25.4618C15.8607 24.8358 15.9464 24.1918 16.211 23.6178L13.9755 21.3183C13.7884 21.1258 13.6833 20.8647 13.6833 20.5925C13.6833 20.3203 13.7884 20.0592 13.9755 19.8667L16.0913 17.6904C16.9664 16.7899 18.0911 16.1902 19.3109 15.9737C20.5307 15.7572 21.7858 15.9344 22.9037 16.4811L24.774 14.5572C26.3958 12.8889 28.4306 11.7091 30.6578 11.1456C32.8851 10.5821 35.2198 10.6564 37.4089 11.3605C38.1572 11.6013 38.8377 12.0249 39.3921 12.5952C39.9465 13.1655 40.3584 13.8655 40.5925 14.6353C41.9897 19.2241 40.7921 24.2317 37.4867 27.6318L35.6144 29.5576C36.1456 30.7076 36.3177 31.9985 36.1072 33.2532C35.8967 34.5078 35.3139 35.6647 34.4388 36.5651L32.323 38.7414C32.1358 38.9339 31.882 39.042 31.6174 39.042C31.3527 39.042 31.0989 38.9339 30.9118 38.7414L28.6762 36.4419L28.6782 36.4398ZM36.814 13.3212C34.9727 12.7284 33.0087 12.6654 31.135 13.1392C29.2613 13.613 27.5495 14.6054 26.1852 16.0088L24.5584 17.6822L24.5644 17.6904L23.1532 19.142L23.1472 19.1337L18.9117 23.4905L18.9177 23.4988L18.1153 24.3262C17.9729 24.5238 17.9043 24.7675 17.9219 25.0128C17.9394 25.2581 18.0421 25.4888 18.2111 25.6628L26.6882 34.3826C26.8579 34.5572 27.083 34.663 27.3224 34.6808C27.5618 34.6985 27.7994 34.6269 27.9916 34.4791L28.792 33.6558L28.8 33.664L33.0356 29.3072L33.0276 29.2989L34.4388 27.8474L34.4468 27.8556L36.0735 26.1802C37.4382 24.7771 38.4034 23.0164 38.8644 21.089C39.3253 19.1617 39.2644 17.1414 38.6883 15.2471C38.5501 14.794 38.3073 14.3822 37.9805 14.0467C37.6537 13.7113 37.2528 13.4624 36.812 13.3212H36.814ZM30.2112 35.1155L31.6184 36.563L33.0276 35.1114C33.5231 34.6025 33.8798 33.9685 34.062 33.273C34.2442 32.5775 34.2454 31.845 34.0655 31.1488L30.2112 35.1155ZM21.3528 18.0743C20.6763 17.8897 19.9646 17.8911 19.2888 18.0785C18.6131 18.2659 17.9971 18.6326 17.5025 19.142L16.0933 20.5935L17.5005 22.039L21.3528 18.0764V18.0743ZM22.6063 33.087L19.4726 29.8636L17.7041 30.9517L21.5464 34.9061L22.6043 33.087H22.6063ZM16.8079 37.2755C16.9068 37.1817 16.9863 37.0683 17.0415 36.9421C17.0967 36.8159 17.1266 36.6795 17.1293 36.5412C17.132 36.4028 17.1074 36.2653 17.0572 36.1369C17.0069 36.0086 16.9319 35.892 16.8367 35.7942C16.7415 35.6964 16.628 35.6194 16.5032 35.5679C16.3783 35.5164 16.2446 35.4913 16.1101 35.4943C15.9756 35.4972 15.843 35.5282 15.7204 35.5851C15.5978 35.6421 15.4877 35.7241 15.3967 35.8259L11.8677 39.4559C11.7724 39.5506 11.6963 39.6639 11.644 39.7892C11.5917 39.9144 11.5642 40.0491 11.563 40.1854C11.5619 40.3217 11.5871 40.4569 11.6373 40.5831C11.6875 40.7092 11.7616 40.8239 11.8553 40.9202C11.949 41.0166 12.0605 41.0929 12.1831 41.1445C12.3058 41.1961 12.4372 41.2221 12.5697 41.2209C12.7022 41.2197 12.8332 41.1914 12.9549 41.1376C13.0767 41.0838 13.1868 41.0056 13.2789 40.9075L16.8079 37.2775V37.2755ZM13.9835 32.9207C14.1706 33.1132 14.2757 33.3743 14.2757 33.6465C14.2757 33.9187 14.1706 34.1798 13.9835 34.3723L12.5683 35.828C12.3809 36.0205 12.1268 36.1285 11.862 36.1283C11.5972 36.1281 11.3432 36.0197 11.1561 35.827C10.969 35.6342 10.8639 35.3729 10.8641 35.1005C10.8643 34.828 10.9697 34.5669 11.1571 34.3744L12.5723 32.9207C12.7594 32.7283 13.0132 32.6202 13.2779 32.6202C13.5425 32.6202 13.7963 32.7283 13.9835 32.9207ZM19.6322 40.1828C19.8068 39.988 19.9014 39.7313 19.8962 39.4665C19.8911 39.2016 19.7866 38.9491 19.6046 38.7616C19.4226 38.5742 19.1772 38.4663 18.9198 38.4607C18.6623 38.455 18.4127 38.5519 18.223 38.7312L16.8059 40.1869C16.6187 40.3796 16.5137 40.641 16.5139 40.9134C16.5141 41.1858 16.6195 41.447 16.8069 41.6395C16.9943 41.832 17.2483 41.94 17.5132 41.9398C17.778 41.9396 18.0319 41.8312 18.219 41.6384L19.6342 40.1828H19.6322Z" fill="#F592AA"/>
<circle cx="29.7917" cy="22.2084" r="2.79167" stroke="#F6F6FC" stroke-width="2"/>
</svg>
