<svg width="53" height="52" viewBox="0 0 53 52" fill="none" xmlns="http://www.w3.org/2000/svg">
<rect x="0.5" width="52" height="52" rx="10" fill="#6868A8"/>
<path d="M22.5 40H30.5" stroke="white" stroke-width="2" stroke-linecap="round"/>
<rect x="16.3572" y="9" width="20.2857" height="34" rx="3" stroke="#F592AA" stroke-width="2"/>
<path fill-rule="evenodd" clip-rule="evenodd" d="M23.6284 20.8676C23.6845 20.7999 23.7608 20.7511 23.8464 20.7281L23.8472 20.7279L26.0897 20.127C26.1751 20.1045 26.2653 20.1089 26.3474 20.1396C26.4294 20.1703 26.4991 20.2257 26.5464 20.2979L27.3522 21.5252C27.5629 21.5642 27.7698 21.6178 27.9715 21.6846L29.3112 21.0054C29.3901 20.9655 29.4797 20.9509 29.567 20.9638C29.6543 20.9767 29.7347 21.0164 29.7969 21.0772L31.4251 22.6689C31.4873 22.7297 31.5279 22.8086 31.5409 22.8941C31.554 22.9796 31.539 23.0673 31.4979 23.1445L30.8045 24.4558C30.8723 24.6526 30.9263 24.8538 30.9659 25.0582L32.2221 25.8471C32.2962 25.8935 32.3531 25.9619 32.3845 26.0425C32.416 26.123 32.4203 26.2116 32.3968 26.2954L31.7824 28.4872C31.7591 28.571 31.7094 28.6458 31.6403 28.7007C31.5712 28.7557 31.4863 28.788 31.3978 28.793L29.898 28.8746C29.7566 29.034 29.604 29.1836 29.4414 29.3223L29.3581 30.7879C29.3532 30.8743 29.3204 30.9574 29.2643 31.0251C29.2083 31.0928 29.132 31.1417 29.0463 31.1646L26.8039 31.7655C26.7182 31.7884 26.6277 31.7843 26.5453 31.7537C26.463 31.7231 26.393 31.6675 26.3455 31.5951L25.5387 30.3672C25.3288 30.328 25.1222 30.2752 24.9223 30.2087L23.5816 30.8874C23.5026 30.9273 23.4131 30.9418 23.3258 30.9289C23.2385 30.916 23.158 30.8763 23.0959 30.8156L21.4677 29.2239C21.4055 29.163 21.3649 29.0842 21.3518 28.9987C21.3387 28.9132 21.3538 28.8255 21.3949 28.7482L22.0883 27.4369C22.0202 27.2397 21.9661 27.0379 21.9265 26.833L20.6707 26.0457C20.5965 25.9993 20.5396 25.9309 20.5082 25.8503C20.4768 25.7697 20.4725 25.6811 20.4959 25.5973L21.1104 23.4056C21.1336 23.3218 21.1834 23.247 21.2525 23.192C21.3216 23.1371 21.4065 23.1047 21.4949 23.0997L22.9953 23.0171C23.1358 22.8586 23.2878 22.7106 23.4508 22.5714L23.5347 21.1049C23.5396 21.0184 23.5724 20.9353 23.6284 20.8676ZM25.8855 23.8679C24.7377 24.1755 24.0564 25.3553 24.364 26.5032C24.6716 27.6511 25.8515 28.3323 26.9994 28.0247C28.1473 27.7172 28.8285 26.5373 28.5209 25.3894C28.2133 24.2415 27.0334 23.5603 25.8855 23.8679Z" fill="white"/>
<circle cx="26" cy="12.5" r="1.5" fill="white"/>
<circle cx="44.5" cy="27" r="1" fill="white"/>
<circle cx="12.5" cy="27" r="1" fill="white"/>
<circle cx="40.5" cy="27" r="1" fill="white"/>
<circle cx="8.5" cy="27" r="1" fill="white"/>
</svg>
