<svg width="52" height="52" viewBox="0 0 52 52" fill="none" xmlns="http://www.w3.org/2000/svg">
<rect width="52" height="52" rx="10" fill="#6868A8"/>
<path d="M41.2393 21.3783C41.7506 22.9911 42.0273 24.7154 42.0273 26.5036C42.0266 29.9891 40.9528 33.3848 38.9599 36.2038C36.967 39.0228 34.1574 41.1203 30.934 42.1954C27.7106 43.2706 24.239 43.2681 21.0171 42.1885C17.7951 41.1089 14.9883 39.0075 12.9991 36.1857C11.0099 33.3639 9.94058 29.9667 9.94444 26.4812C9.9483 22.9957 11.0251 19.601 13.0206 16.7839C15.016 13.9668 17.8274 11.872 21.0518 10.7999C24.2761 9.72782 27.7478 9.73353 30.9688 10.8162L29.3486 12.4827C26.3721 11.7278 23.2371 11.996 20.4228 13.2464C17.6084 14.4967 15.2694 16.6603 13.7631 19.4068C12.2569 22.1532 11.6662 25.3313 12.0814 28.4556C12.4965 31.5798 13.8947 34.4783 16.0622 36.7083C18.2297 38.9382 21.0475 40.3769 24.0848 40.8045C27.1221 41.2322 30.212 40.6252 32.8824 39.0764C35.5528 37.5277 37.6568 35.1222 38.8729 32.2276C40.0891 29.3331 40.3504 26.1086 39.6171 23.0468L41.2393 21.3783ZM35.8113 24.4411C36.2419 26.613 35.9807 28.8699 35.0664 30.8772C34.152 32.8844 32.6333 34.5352 30.7351 35.5849C28.837 36.6345 26.6606 37.0271 24.5285 36.7045C22.3964 36.3819 20.422 35.3613 18.8982 33.7939C17.3743 32.2265 16.3821 30.1957 16.0684 28.0027C15.7548 25.8096 16.1365 23.571 17.157 21.6186C18.1774 19.6662 19.7824 18.104 21.7338 17.1635C23.6853 16.2231 25.8795 15.9544 27.9911 16.3973V18.5135C26.2876 18.0614 24.4869 18.198 22.8663 18.9022C21.2458 19.6063 19.8952 20.839 19.0227 22.4103C18.1502 23.9816 17.8042 25.8043 18.0379 27.5978C18.2715 29.3913 19.072 31.056 20.316 32.3356C21.56 33.6151 23.1784 34.4384 24.922 34.6788C26.6657 34.9192 28.4378 34.5632 29.9654 33.6658C31.4931 32.7684 32.6914 31.3792 33.376 29.7123C34.0606 28.0454 34.1934 26.1932 33.754 24.4411H35.8113Z" fill="#F592AA"/>
<path d="M27.3137 25.3293L31.4387 21.2043M31.4387 21.2043C31.4387 21.2043 31.4387 15.4293 31.4387 15.0168C31.4387 14.6868 34.1887 12.1293 35.5637 10.8918V17.0793H41.7512L37.6262 21.2043H31.4387Z" stroke="white" stroke-width="2" stroke-linecap="round" stroke-linejoin="round"/>
<circle cx="25.664" cy="26.5669" r="3.125" fill="#6868A8" stroke="white" stroke-width="2"/>
</svg>
