<svg width="52" height="52" viewBox="0 0 52 52" fill="none" xmlns="http://www.w3.org/2000/svg">
<rect width="52" height="52" rx="10" fill="#6868A8"/>
<path d="M12.6349 22.5995H17.9326C17.3798 23.2762 17.0422 24.1066 16.9642 24.9815H12.6349C12.531 24.9815 12.4314 25.0234 12.3579 25.0978C12.2845 25.1723 12.2432 25.2733 12.2432 25.3785V30.538C12.2431 31.138 12.3772 31.7303 12.6354 32.2704C12.8935 32.8104 13.2691 33.2841 13.7338 33.6559C14.1986 34.0278 14.7404 34.288 15.3186 34.4172C15.8969 34.5463 16.4964 34.541 17.0723 34.4016C17.2055 35.2019 17.4484 35.9657 17.7821 36.6756C16.8534 36.9274 15.88 36.9593 14.9371 36.769C13.9943 36.5786 13.1073 36.171 12.3447 35.5777C11.5821 34.9845 10.9643 34.2214 10.5392 33.3475C10.114 32.4736 9.8929 31.5123 9.89288 30.538V25.3785C9.89288 23.8445 11.1213 22.5995 12.6349 22.5995ZM33.9697 22.5995H39.258C40.7716 22.5995 42 23.8445 42 25.3785V30.5395C42.0002 31.5133 41.7796 32.474 41.3551 33.3475C40.9306 34.221 40.3136 34.9839 39.5519 35.5773C38.7901 36.1706 37.904 36.5786 36.9619 36.7696C36.0198 36.9606 35.047 36.9295 34.1186 36.6788C34.4539 35.9673 34.6968 35.2035 34.8315 34.4032C35.4067 34.5409 36.0052 34.545 36.5822 34.4151C37.1591 34.2852 37.6996 34.0246 38.1631 33.6529C38.6266 33.2813 39.0011 32.8081 39.2585 32.2689C39.516 31.7298 39.6497 31.1385 39.6497 30.5395V25.3785C39.6497 25.2733 39.6084 25.1723 39.535 25.0978C39.4615 25.0234 39.3619 24.9815 39.258 24.9815H34.9381C34.8601 24.1066 34.5225 23.2762 33.9697 22.5995ZM36.5159 13.0715C37.5548 13.0715 38.5512 13.4898 39.2858 14.2343C40.0204 14.9788 40.4331 15.9886 40.4331 17.0415C40.4331 18.0944 40.0204 19.1042 39.2858 19.8488C38.5512 20.5933 37.5548 21.0115 36.5159 21.0115C35.477 21.0115 34.4807 20.5933 33.746 19.8488C33.0114 19.1042 32.5987 18.0944 32.5987 17.0415C32.5987 15.9886 33.0114 14.9788 33.746 14.2343C34.4807 13.4898 35.477 13.0715 36.5159 13.0715ZM15.377 13.0715C16.4159 13.0715 17.4122 13.4898 18.1469 14.2343C18.8815 14.9788 19.2942 15.9886 19.2942 17.0415C19.2942 18.0944 18.8815 19.1042 18.1469 19.8488C17.4122 20.5933 16.4159 21.0115 15.377 21.0115C14.3381 21.0115 13.3417 20.5933 12.6071 19.8488C11.8725 19.1042 11.4598 18.0944 11.4598 17.0415C11.4598 15.9886 11.8725 14.9788 12.6071 14.2343C13.3417 13.4898 14.3381 13.0715 15.377 13.0715ZM36.5159 15.4535C36.1004 15.4535 35.7018 15.6208 35.408 15.9187C35.1141 16.2165 34.949 16.6204 34.949 17.0415C34.949 17.4627 35.1141 17.8666 35.408 18.1644C35.7018 18.4622 36.1004 18.6295 36.5159 18.6295C36.9315 18.6295 37.33 18.4622 37.6239 18.1644C37.9177 17.8666 38.0828 17.4627 38.0828 17.0415C38.0828 16.6204 37.9177 16.2165 37.6239 15.9187C37.33 15.6208 36.9315 15.4535 36.5159 15.4535ZM15.377 15.4535C14.9614 15.4535 14.5629 15.6208 14.269 15.9187C13.9752 16.2165 13.8101 16.6204 13.8101 17.0415C13.8101 17.4627 13.9752 17.8666 14.269 18.1644C14.5629 18.4622 14.9614 18.6295 15.377 18.6295C15.7925 18.6295 16.1911 18.4622 16.4849 18.1644C16.7788 17.8666 16.9439 17.4627 16.9439 17.0415C16.9439 16.6204 16.7788 16.2165 16.4849 15.9187C16.1911 15.6208 15.7925 15.4535 15.377 15.4535Z" fill="#F592AA"/>
<path d="M25.549 12.1C26.4836 12.1 27.3864 12.4816 28.0569 13.1713C28.7285 13.8621 29.1111 14.8054 29.1111 15.7953C29.1111 16.7851 28.7285 17.7285 28.0569 18.4192C27.3864 19.109 26.4836 19.4905 25.549 19.4905C24.6145 19.4905 23.7117 19.109 23.0412 18.4192C22.3696 17.7285 21.987 16.7851 21.987 15.7953C21.987 14.8054 22.3696 13.8621 23.0412 13.1713C23.7117 12.4816 24.6145 12.1 25.549 12.1Z" stroke="white" stroke-width="2.2"/>
<path d="M29.8673 23.5175C30.732 23.5175 31.4869 24.2487 31.4869 25.2147V32.8056C31.4869 34.4318 30.8585 35.9854 29.7495 37.1261C28.6415 38.2658 27.1454 38.9001 25.5922 38.9001C24.039 38.9001 22.5429 38.2658 21.4349 37.1261C20.3259 35.9854 19.6975 34.4318 19.6975 32.8056V25.2147C19.6975 24.2483 20.4512 23.5175 21.3171 23.5175H29.8673Z" stroke="white" stroke-width="2.2"/>
</svg>
